<?xml version="1.0" encoding="UTF-8" standalone="no"?>
<!DOCTYPE svg PUBLIC "-//W3C//DTD SVG 1.1//EN"
 "http://www.w3.org/Graphics/SVG/1.1/DTD/svg11.dtd">
<!-- Generated by graphviz version 2.42.4 (0)
 -->
<!-- Title: ERD Pages: 1 -->
<svg width="1322pt" height="1470pt"
 viewBox="0.00 0.00 1321.80 1470.30" xmlns="http://www.w3.org/2000/svg" xmlns:xlink="http://www.w3.org/1999/xlink">
<g id="graph0" class="graph" transform="scale(1 1) rotate(0) translate(14.4 1455.9)">
<title>ERD</title>
<polygon fill="white" stroke="transparent" points="-14.4,14.4 -14.4,-1455.9 1307.4,-1455.9 1307.4,14.4 -14.4,14.4"/>
<!-- roles -->
<g id="node1" class="node">
<title>roles</title>
<polygon fill="#e8eef7" stroke="transparent" points="298.5,-1417.5 298.5,-1440.5 370.5,-1440.5 370.5,-1417.5 298.5,-1417.5"/>
<text text-anchor="start" x="318" y="-1426.3" font-family="Arial" font-weight="bold" font-size="14.00">roles</text>
<text text-anchor="start" x="302.5" y="-1402.3" font-family="Arial" font-size="14.00">PK id</text>
<text text-anchor="start" x="302.5" y="-1379.3" font-family="Arial" font-size="14.00">code (UQ)</text>
<text text-anchor="start" x="302.5" y="-1356.3" font-family="Arial" font-size="14.00">name</text>
<polygon fill="none" stroke="black" points="297.5,-1347.5 297.5,-1441.5 371.5,-1441.5 371.5,-1347.5 297.5,-1347.5"/>
</g>
<!-- user_roles -->
<g id="node3" class="node">
<title>user_roles</title>
<polygon fill="#e8eef7" stroke="transparent" points="587.5,-1359.5 587.5,-1382.5 683.5,-1382.5 683.5,-1359.5 587.5,-1359.5"/>
<text text-anchor="start" x="601" y="-1368.3" font-family="Arial" font-weight="bold" font-size="14.00">user_roles</text>
<text text-anchor="start" x="591.5" y="-1344.3" font-family="Arial" font-size="14.00">PK/FK user_id</text>
<text text-anchor="start" x="591.5" y="-1321.3" font-family="Arial" font-size="14.00">PK/FK role_id</text>
<polygon fill="none" stroke="black" points="586.5,-1313 586.5,-1384 684.5,-1384 684.5,-1313 586.5,-1313"/>
</g>
<!-- roles&#45;&gt;user_roles -->
<g id="edge2" class="edge">
<title>roles&#45;&gt;user_roles</title>
<path fill="none" stroke="#555555" d="M371.71,-1365.75C371.71,-1365.75 580.41,-1365.75 580.41,-1365.75"/>
<polygon fill="#555555" stroke="#555555" points="580.41,-1367.85 586.41,-1365.75 580.41,-1363.65 580.41,-1367.85"/>
<text text-anchor="middle" x="505.5" y="-1397.1" font-family="Arial" font-size="8.00">1:N</text>
</g>
<!-- users -->
<g id="node2" class="node">
<title>users</title>
<polygon fill="#e8eef7" stroke="transparent" points="202.5,-827.5 202.5,-850.5 467.5,-850.5 467.5,-827.5 202.5,-827.5"/>
<text text-anchor="start" x="316.5" y="-836.3" font-family="Arial" font-weight="bold" font-size="14.00">users</text>
<text text-anchor="start" x="206.5" y="-812.3" font-family="Arial" font-size="14.00">PK id</text>
<text text-anchor="start" x="206.5" y="-789.3" font-family="Arial" font-size="14.00">email (UQ)</text>
<text text-anchor="start" x="206.5" y="-766.3" font-family="Arial" font-size="14.00">document_type + document_number (UQ)</text>
<text text-anchor="start" x="206.5" y="-743.3" font-family="Arial" font-size="14.00">password_hash</text>
<text text-anchor="start" x="206.5" y="-720.3" font-family="Arial" font-size="14.00">active</text>
<polygon fill="none" stroke="black" points="201,-711.5 201,-851.5 468,-851.5 468,-711.5 201,-711.5"/>
</g>
<!-- users&#45;&gt;user_roles -->
<g id="edge1" class="edge">
<title>users&#45;&gt;user_roles</title>
<path fill="none" stroke="#555555" d="M403,-851.57C403,-996.86 403,-1317.5 403,-1317.5 403,-1317.5 580.48,-1317.5 580.48,-1317.5"/>
<polygon fill="#555555" stroke="#555555" points="580.48,-1319.6 586.48,-1317.5 580.48,-1315.4 580.48,-1319.6"/>
<text text-anchor="middle" x="505.5" y="-1273.1" font-family="Arial" font-size="8.00">1:N</text>
</g>
<!-- refresh_tokens -->
<g id="node4" class="node">
<title>refresh_tokens</title>
<polygon fill="#e8eef7" stroke="transparent" points="561.5,-234.5 561.5,-257.5 710.5,-257.5 710.5,-234.5 561.5,-234.5"/>
<text text-anchor="start" x="587.5" y="-243.3" font-family="Arial" font-weight="bold" font-size="14.00">refresh_tokens</text>
<text text-anchor="start" x="565.5" y="-219.3" font-family="Arial" font-size="14.00">PK id</text>
<text text-anchor="start" x="565.5" y="-196.3" font-family="Arial" font-size="14.00">FK user_id</text>
<text text-anchor="start" x="565.5" y="-173.3" font-family="Arial" font-size="14.00">token_hash (UQ)</text>
<text text-anchor="start" x="565.5" y="-150.3" font-family="Arial" font-size="14.00">expires_at / revoked_at</text>
<polygon fill="none" stroke="black" points="560,-142 560,-259 711,-259 711,-142 560,-142"/>
</g>
<!-- users&#45;&gt;refresh_tokens -->
<g id="edge3" class="edge">
<title>users&#45;&gt;refresh_tokens</title>
<path fill="none" stroke="#555555" d="M468.3,-717C520.47,-717 568,-717 568,-717 568,-717 568,-265.25 568,-265.25"/>
<polygon fill="#555555" stroke="#555555" points="570.1,-265.25 568,-259.25 565.9,-265.25 570.1,-265.25"/>
<text text-anchor="middle" x="505.5" y="-203.1" font-family="Arial" font-size="8.00">1:N</text>
</g>
<!-- password_reset_tokens -->
<g id="node5" class="node">
<title>password_reset_tokens</title>
<polygon fill="#e8eef7" stroke="transparent" points="554.5,-92.5 554.5,-115.5 717.5,-115.5 717.5,-92.5 554.5,-92.5"/>
<text text-anchor="start" x="558.5" y="-101.3" font-family="Arial" font-weight="bold" font-size="14.00">password_reset_tokens</text>
<text text-anchor="start" x="558.5" y="-77.3" font-family="Arial" font-size="14.00">PK id</text>
<text text-anchor="start" x="558.5" y="-54.3" font-family="Arial" font-size="14.00">FK user_id</text>
<text text-anchor="start" x="558.5" y="-31.3" font-family="Arial" font-size="14.00">token_hash (UQ)</text>
<text text-anchor="start" x="558.5" y="-8.3" font-family="Arial" font-size="14.00">expires_at / used_at</text>
<polygon fill="none" stroke="black" points="553,0 553,-117 718,-117 718,0 553,0"/>
</g>
<!-- users&#45;&gt;password_reset_tokens -->
<g id="edge4" class="edge">
<title>users&#45;&gt;password_reset_tokens</title>
<path fill="none" stroke="#555555" d="M290,-711.19C290,-529.5 290,-58.5 290,-58.5 290,-58.5 546.74,-58.5 546.74,-58.5"/>
<polygon fill="#555555" stroke="#555555" points="546.74,-60.6 552.74,-58.5 546.74,-56.4 546.74,-60.6"/>
<text text-anchor="middle" x="505.5" y="-61.1" font-family="Arial" font-size="8.00">1:N</text>
</g>
<!-- user_insurance -->
<g id="node9" class="node">
<title>user_insurance</title>
<polygon fill="#e8f4ea" stroke="transparent" points="544.5,-1068.5 544.5,-1091.5 727.5,-1091.5 727.5,-1068.5 544.5,-1068.5"/>
<text text-anchor="start" x="548.5" y="-1077.3" font-family="Arial" font-weight="bold" font-size="14.00">user_insurance_affiliations</text>
<text text-anchor="start" x="548.5" y="-1053.3" font-family="Arial" font-size="14.00">PK id</text>
<text text-anchor="start" x="548.5" y="-1030.3" font-family="Arial" font-size="14.00">FK user_id</text>
<text text-anchor="start" x="548.5" y="-1007.3" font-family="Arial" font-size="14.00">FK plan_id</text>
<text text-anchor="start" x="548.5" y="-984.3" font-family="Arial" font-size="14.00">membership_number</text>
<text text-anchor="start" x="548.5" y="-961.3" font-family="Arial" font-size="14.00">is_current</text>
<polygon fill="none" stroke="black" points="543,-952.5 543,-1092.5 728,-1092.5 728,-952.5 543,-952.5"/>
</g>
<!-- users&#45;&gt;user_insurance -->
<g id="edge8" class="edge">
<title>users&#45;&gt;user_insurance</title>
<path fill="none" stroke="#555555" d="M468.2,-790C511.22,-790 548,-790 548,-790 548,-790 548,-946.43 548,-946.43"/>
<polygon fill="#555555" stroke="#555555" points="545.9,-946.43 548,-952.43 550.1,-946.43 545.9,-946.43"/>
<text text-anchor="middle" x="505.5" y="-995.1" font-family="Arial" font-size="8.00">1:N</text>
</g>
<!-- professionals -->
<g id="node12" class="node">
<title>professionals</title>
<polygon fill="#fff1d8" stroke="transparent" points="576.5,-678.5 576.5,-701.5 694.5,-701.5 694.5,-678.5 576.5,-678.5"/>
<text text-anchor="start" x="591.5" y="-687.3" font-family="Arial" font-weight="bold" font-size="14.00">professionals</text>
<text text-anchor="start" x="580.5" y="-663.3" font-family="Arial" font-size="14.00">PK id</text>
<text text-anchor="start" x="580.5" y="-640.3" font-family="Arial" font-size="14.00">FK user_id (UQ)</text>
<text text-anchor="start" x="580.5" y="-617.3" font-family="Arial" font-size="14.00">professional_code</text>
<text text-anchor="start" x="580.5" y="-594.3" font-family="Arial" font-size="14.00">license_number</text>
<polygon fill="none" stroke="black" points="575.5,-586 575.5,-703 695.5,-703 695.5,-586 575.5,-586"/>
</g>
<!-- users&#45;&gt;professionals -->
<g id="edge5" class="edge">
<title>users&#45;&gt;professionals</title>
<path fill="none" stroke="#555555" d="M468.06,-722.5C548.7,-722.5 636,-722.5 636,-722.5 636,-722.5 636,-709.22 636,-709.22"/>
<polygon fill="#555555" stroke="#555555" points="638.1,-709.22 636,-703.22 633.9,-709.22 638.1,-709.22"/>
<text text-anchor="middle" x="505.5" y="-715.1" font-family="Arial" font-size="8.00">1:0..1</text>
</g>
<!-- appointments -->
<g id="node16" class="node">
<title>appointments</title>
<polygon fill="#f5e8f7" stroke="transparent" points="826,-1057.5 826,-1080.5 1001,-1080.5 1001,-1057.5 826,-1057.5"/>
<text text-anchor="start" x="868.5" y="-1066.3" font-family="Arial" font-weight="bold" font-size="14.00">appointments</text>
<text text-anchor="start" x="830" y="-1042.3" font-family="Arial" font-size="14.00">PK id</text>
<text text-anchor="start" x="830" y="-1019.3" font-family="Arial" font-size="14.00">FK patient_user_id</text>
<text text-anchor="start" x="830" y="-996.3" font-family="Arial" font-size="14.00">FK professional_id</text>
<text text-anchor="start" x="830" y="-973.3" font-family="Arial" font-size="14.00">FK location_id</text>
<text text-anchor="start" x="830" y="-950.3" font-family="Arial" font-size="14.00">FK specialty_id</text>
<text text-anchor="start" x="830" y="-927.3" font-family="Arial" font-size="14.00">FK insurance_affiliation_id</text>
<text text-anchor="start" x="830" y="-904.3" font-family="Arial" font-size="14.00">FK status_id</text>
<text text-anchor="start" x="830" y="-881.3" font-family="Arial" font-size="14.00">scheduled_start_at / end_at</text>
<polygon fill="none" stroke="black" points="824.5,-873 824.5,-1082 1001.5,-1082 1001.5,-873 824.5,-873"/>
</g>
<!-- users&#45;&gt;appointments -->
<g id="edge14" class="edge">
<title>users&#45;&gt;appointments</title>
<path fill="none" stroke="#555555" d="M447,-851.75C447,-891.22 447,-932.62 447,-932.62 447,-932.62 818.25,-932.62 818.25,-932.62"/>
<polygon fill="#555555" stroke="#555555" points="818.25,-934.73 824.25,-932.62 818.25,-930.53 818.25,-934.73"/>
<text text-anchor="middle" x="635.5" y="-921.1" font-family="Arial" font-size="8.00">patient 1:N</text>
</g>
<!-- appointment_status_history -->
<g id="node19" class="node">
<title>appointment_status_history</title>
<polygon fill="#f5e8f7" stroke="transparent" points="1096,-1199.5 1096,-1222.5 1286,-1222.5 1286,-1199.5 1096,-1199.5"/>
<text text-anchor="start" x="1100" y="-1208.3" font-family="Arial" font-weight="bold" font-size="14.00">appointment_status_history</text>
<text text-anchor="start" x="1100" y="-1184.3" font-family="Arial" font-size="14.00">PK id</text>
<text text-anchor="start" x="1100" y="-1161.3" font-family="Arial" font-size="14.00">FK appointment_id</text>
<text text-anchor="start" x="1100" y="-1138.3" font-family="Arial" font-size="14.00">FK status_id</text>
<text text-anchor="start" x="1100" y="-1115.3" font-family="Arial" font-size="14.00">FK changed_by_user_id</text>
<text text-anchor="start" x="1100" y="-1092.3" font-family="Arial" font-size="14.00">source / reason</text>
<polygon fill="none" stroke="black" points="1095,-1083.5 1095,-1223.5 1287,-1223.5 1287,-1083.5 1095,-1083.5"/>
</g>
<!-- users&#45;&gt;appointment_status_history -->
<g id="edge26" class="edge">
<title>users&#45;&gt;appointment_status_history</title>
<path fill="none" stroke="#555555" d="M425,-851.75C425,-946.97 425,-1105.25 425,-1105.25 425,-1105.25 1088.76,-1105.25 1088.76,-1105.25"/>
<polygon fill="#555555" stroke="#555555" points="1088.76,-1107.35 1094.76,-1105.25 1088.76,-1103.15 1088.76,-1107.35"/>
<text text-anchor="middle" x="770.5" y="-1230.1" font-family="Arial" font-size="8.00">actor</text>
</g>
<!-- reschedule_requests -->
<g id="node21" class="node">
<title>reschedule_requests</title>
<polygon fill="#f5e8f7" stroke="transparent" points="1090,-464.5 1090,-487.5 1292,-487.5 1292,-464.5 1090,-464.5"/>
<text text-anchor="start" x="1123" y="-473.3" font-family="Arial" font-weight="bold" font-size="14.00">reschedule_requests</text>
<text text-anchor="start" x="1094" y="-449.3" font-family="Arial" font-size="14.00">PK id</text>
<text text-anchor="start" x="1094" y="-426.3" font-family="Arial" font-size="14.00">FK appointment_id</text>
<text text-anchor="start" x="1094" y="-403.3" font-family="Arial" font-size="14.00">FK requested_by_user_id</text>
<text text-anchor="start" x="1094" y="-380.3" font-family="Arial" font-size="14.00">FK requested_location_id</text>
<text text-anchor="start" x="1094" y="-357.3" font-family="Arial" font-size="14.00">FK status_id</text>
<text text-anchor="start" x="1094" y="-334.3" font-family="Arial" font-size="14.00">previous / requested datetime</text>
<text text-anchor="start" x="1094" y="-311.3" font-family="Arial" font-size="14.00">decision_reason / patient_action</text>
<polygon fill="none" stroke="black" points="1089,-302.5 1089,-488.5 1293,-488.5 1293,-302.5 1089,-302.5"/>
</g>
<!-- users&#45;&gt;reschedule_requests -->
<g id="edge28" class="edge">
<title>users&#45;&gt;reschedule_requests</title>
<path fill="none" stroke="#555555" d="M379,-711.49C379,-589.01 379,-348.75 379,-348.75 379,-348.75 1082.98,-348.75 1082.98,-348.75"/>
<polygon fill="#555555" stroke="#555555" points="1082.98,-350.85 1088.98,-348.75 1082.98,-346.65 1082.98,-350.85"/>
<text text-anchor="middle" x="770.5" y="-300.1" font-family="Arial" font-size="8.00">requests</text>
</g>
<!-- insurance_regimes -->
<g id="node6" class="node">
<title>insurance_regimes</title>
<polygon fill="#e8f4ea" stroke="transparent" points="1,-1345.5 1,-1368.5 133,-1368.5 133,-1345.5 1,-1345.5"/>
<text text-anchor="start" x="5" y="-1354.3" font-family="Arial" font-weight="bold" font-size="14.00">insurance_regimes</text>
<text text-anchor="start" x="5" y="-1330.3" font-family="Arial" font-size="14.00">PK id</text>
<text text-anchor="start" x="5" y="-1307.3" font-family="Arial" font-size="14.00">code (UQ)</text>
<text text-anchor="start" x="5" y="-1284.3" font-family="Arial" font-size="14.00">name</text>
<polygon fill="none" stroke="black" points="0,-1275.5 0,-1369.5 134,-1369.5 134,-1275.5 0,-1275.5"/>
</g>
<!-- eps_plans -->
<g id="node8" class="node">
<title>eps_plans</title>
<polygon fill="#e8f4ea" stroke="transparent" points="289.5,-1297.5 289.5,-1320.5 379.5,-1320.5 379.5,-1297.5 289.5,-1297.5"/>
<text text-anchor="start" x="301" y="-1306.3" font-family="Arial" font-weight="bold" font-size="14.00">eps_plans</text>
<text text-anchor="start" x="293.5" y="-1282.3" font-family="Arial" font-size="14.00">PK id</text>
<text text-anchor="start" x="293.5" y="-1259.3" font-family="Arial" font-size="14.00">FK eps_id</text>
<text text-anchor="start" x="293.5" y="-1236.3" font-family="Arial" font-size="14.00">FK regime_id</text>
<text text-anchor="start" x="293.5" y="-1213.3" font-family="Arial" font-size="14.00">code + name</text>
<polygon fill="none" stroke="black" points="288.5,-1205 288.5,-1322 380.5,-1322 380.5,-1205 288.5,-1205"/>
</g>
<!-- insurance_regimes&#45;&gt;eps_plans -->
<g id="edge7" class="edge">
<title>insurance_regimes&#45;&gt;eps_plans</title>
<path fill="none" stroke="#555555" d="M134.16,-1298.75C134.16,-1298.75 282.37,-1298.75 282.37,-1298.75"/>
<polygon fill="#555555" stroke="#555555" points="282.37,-1300.85 288.37,-1298.75 282.37,-1296.65 282.37,-1300.85"/>
<text text-anchor="middle" x="167.5" y="-1325.1" font-family="Arial" font-size="8.00">1:N</text>
</g>
<!-- eps -->
<g id="node7" class="node">
<title>eps</title>
<polygon fill="#e8f4ea" stroke="transparent" points="31,-1226.5 31,-1249.5 103,-1249.5 103,-1226.5 31,-1226.5"/>
<text text-anchor="start" x="55" y="-1235.3" font-family="Arial" font-weight="bold" font-size="14.00">eps</text>
<text text-anchor="start" x="35" y="-1211.3" font-family="Arial" font-size="14.00">PK id</text>
<text text-anchor="start" x="35" y="-1188.3" font-family="Arial" font-size="14.00">code (UQ)</text>
<text text-anchor="start" x="35" y="-1165.3" font-family="Arial" font-size="14.00">name</text>
<polygon fill="none" stroke="black" points="30,-1156.5 30,-1250.5 104,-1250.5 104,-1156.5 30,-1156.5"/>
</g>
<!-- eps&#45;&gt;eps_plans -->
<g id="edge6" class="edge">
<title>eps&#45;&gt;eps_plans</title>
<path fill="none" stroke="#555555" d="M104.19,-1227.75C104.19,-1227.75 282.2,-1227.75 282.2,-1227.75"/>
<polygon fill="#555555" stroke="#555555" points="282.2,-1229.85 288.2,-1227.75 282.2,-1225.65 282.2,-1229.85"/>
<text text-anchor="middle" x="167.5" y="-1206.1" font-family="Arial" font-size="8.00">1:N</text>
</g>
<!-- eps_plans&#45;&gt;user_insurance -->
<g id="edge9" class="edge">
<title>eps_plans&#45;&gt;user_insurance</title>
<path fill="none" stroke="#555555" d="M380.68,-1214.25C444.26,-1214.25 551,-1214.25 551,-1214.25 551,-1214.25 551,-1098.54 551,-1098.54"/>
<polygon fill="#555555" stroke="#555555" points="553.1,-1098.54 551,-1092.54 548.9,-1098.54 553.1,-1098.54"/>
<text text-anchor="middle" x="505.5" y="-1312.1" font-family="Arial" font-size="8.00">1:N</text>
</g>
<!-- user_insurance&#45;&gt;appointments -->
<g id="edge18" class="edge">
<title>user_insurance&#45;&gt;appointments</title>
<path fill="none" stroke="#555555" d="M728.29,-1017.25C728.29,-1017.25 818.06,-1017.25 818.06,-1017.25"/>
<polygon fill="#555555" stroke="#555555" points="818.06,-1019.35 824.06,-1017.25 818.06,-1015.15 818.06,-1019.35"/>
<text text-anchor="middle" x="770.5" y="-1002.1" font-family="Arial" font-size="8.00">0..1:N</text>
</g>
<!-- locations -->
<g id="node10" class="node">
<title>locations</title>
<polygon fill="#fff1d8" stroke="transparent" points="584.5,-536.5 584.5,-559.5 686.5,-559.5 686.5,-536.5 584.5,-536.5"/>
<text text-anchor="start" x="605.5" y="-545.3" font-family="Arial" font-weight="bold" font-size="14.00">locations</text>
<text text-anchor="start" x="588.5" y="-521.3" font-family="Arial" font-size="14.00">PK id</text>
<text text-anchor="start" x="588.5" y="-498.3" font-family="Arial" font-size="14.00">code (UQ)</text>
<text text-anchor="start" x="588.5" y="-475.3" font-family="Arial" font-size="14.00">name / address</text>
<polygon fill="none" stroke="black" points="583.5,-466.5 583.5,-560.5 687.5,-560.5 687.5,-466.5 583.5,-466.5"/>
</g>
<!-- professional_locations -->
<g id="node14" class="node">
<title>professional_locations</title>
<polygon fill="#fff1d8" stroke="transparent" points="835,-703.5 835,-726.5 991,-726.5 991,-703.5 835,-703.5"/>
<text text-anchor="start" x="839" y="-712.3" font-family="Arial" font-weight="bold" font-size="14.00">professional_locations</text>
<text text-anchor="start" x="839" y="-688.3" font-family="Arial" font-size="14.00">PK/FK professional_id</text>
<text text-anchor="start" x="839" y="-665.3" font-family="Arial" font-size="14.00">PK/FK location_id</text>
<polygon fill="none" stroke="black" points="834,-657 834,-728 992,-728 992,-657 834,-657"/>
</g>
<!-- locations&#45;&gt;professional_locations -->
<g id="edge13" class="edge">
<title>locations&#45;&gt;professional_locations</title>
<path fill="none" stroke="#555555" d="M687.64,-526C747.94,-526 839,-526 839,-526 839,-526 839,-650.78 839,-650.78"/>
<polygon fill="#555555" stroke="#555555" points="836.9,-650.78 839,-656.78 841.1,-650.78 836.9,-650.78"/>
<text text-anchor="middle" x="770.5" y="-560.1" font-family="Arial" font-size="8.00">1:N</text>
</g>
<!-- locations&#45;&gt;appointments -->
<g id="edge16" class="edge">
<title>locations&#45;&gt;appointments</title>
<path fill="none" stroke="#555555" d="M687.56,-543.25C707.25,-543.25 725,-543.25 725,-543.25 725,-543.25 725,-892.88 725,-892.88 725,-892.88 818.23,-892.88 818.23,-892.88"/>
<polygon fill="#555555" stroke="#555555" points="818.23,-894.98 824.23,-892.88 818.23,-890.78 818.23,-894.98"/>
<text text-anchor="middle" x="770.5" y="-725.1" font-family="Arial" font-size="8.00">1:N</text>
</g>
<!-- availability_blocks -->
<g id="node17" class="node">
<title>availability_blocks</title>
<polygon fill="#f5e8f7" stroke="transparent" points="845,-607.5 845,-630.5 981,-630.5 981,-607.5 845,-607.5"/>
<text text-anchor="start" x="853" y="-616.3" font-family="Arial" font-weight="bold" font-size="14.00">availability_blocks</text>
<text text-anchor="start" x="849" y="-592.3" font-family="Arial" font-size="14.00">PK id</text>
<text text-anchor="start" x="849" y="-569.3" font-family="Arial" font-size="14.00">FK professional_id</text>
<text text-anchor="start" x="849" y="-546.3" font-family="Arial" font-size="14.00">FK location_id</text>
<text text-anchor="start" x="849" y="-523.3" font-family="Arial" font-size="14.00">available_date</text>
<text text-anchor="start" x="849" y="-500.3" font-family="Arial" font-size="14.00">start_time / end_time</text>
<polygon fill="none" stroke="black" points="844,-491.5 844,-631.5 982,-631.5 982,-491.5 844,-491.5"/>
</g>
<!-- locations&#45;&gt;availability_blocks -->
<g id="edge21" class="edge">
<title>locations&#45;&gt;availability_blocks</title>
<path fill="none" stroke="#555555" d="M687.7,-508.75C687.7,-508.75 838,-508.75 838,-508.75"/>
<polygon fill="#555555" stroke="#555555" points="838,-510.85 844,-508.75 838,-506.65 838,-510.85"/>
<text text-anchor="middle" x="770.5" y="-518.1" font-family="Arial" font-size="8.00">1:N</text>
</g>
<!-- locations&#45;&gt;reschedule_requests -->
<g id="edge29" class="edge">
<title>locations&#45;&gt;reschedule_requests</title>
<path fill="none" stroke="#555555" d="M687.76,-473.83C687.76,-473.83 1082.82,-473.83 1082.82,-473.83"/>
<polygon fill="#555555" stroke="#555555" points="1082.82,-475.93 1088.82,-473.83 1082.82,-471.73 1082.82,-475.93"/>
<text text-anchor="middle" x="913" y="-363.1" font-family="Arial" font-size="8.00">target</text>
</g>
<!-- specialties -->
<g id="node11" class="node">
<title>specialties</title>
<polygon fill="#fff1d8" stroke="transparent" points="554.5,-844.5 554.5,-867.5 716.5,-867.5 716.5,-844.5 554.5,-844.5"/>
<text text-anchor="start" x="600.5" y="-853.3" font-family="Arial" font-weight="bold" font-size="14.00">specialties</text>
<text text-anchor="start" x="558.5" y="-829.3" font-family="Arial" font-size="14.00">PK id</text>
<text text-anchor="start" x="558.5" y="-806.3" font-family="Arial" font-size="14.00">code (UQ)</text>
<text text-anchor="start" x="558.5" y="-783.3" font-family="Arial" font-size="14.00">duration 30/60</text>
<text text-anchor="start" x="558.5" y="-760.3" font-family="Arial" font-size="14.00">is_general</text>
<text text-anchor="start" x="558.5" y="-737.3" font-family="Arial" font-size="14.00">requires_admin_approval</text>
<polygon fill="none" stroke="black" points="553.5,-728.5 553.5,-868.5 717.5,-868.5 717.5,-728.5 553.5,-728.5"/>
</g>
<!-- professional_specialties -->
<g id="node13" class="node">
<title>professional_specialties</title>
<polygon fill="#fff1d8" stroke="transparent" points="831,-823.5 831,-846.5 996,-846.5 996,-823.5 831,-823.5"/>
<text text-anchor="start" x="835" y="-832.3" font-family="Arial" font-weight="bold" font-size="14.00">professional_specialties</text>
<text text-anchor="start" x="835" y="-808.3" font-family="Arial" font-size="14.00">PK/FK professional_id</text>
<text text-anchor="start" x="835" y="-785.3" font-family="Arial" font-size="14.00">PK/FK specialty_id</text>
<text text-anchor="start" x="835" y="-762.3" font-family="Arial" font-size="14.00">is_primary</text>
<polygon fill="none" stroke="black" points="829.5,-753.5 829.5,-847.5 996.5,-847.5 996.5,-753.5 829.5,-753.5"/>
</g>
<!-- specialties&#45;&gt;professional_specialties -->
<g id="edge11" class="edge">
<title>specialties&#45;&gt;professional_specialties</title>
<path fill="none" stroke="#555555" d="M717.63,-816.17C717.63,-816.17 823.16,-816.17 823.16,-816.17"/>
<polygon fill="#555555" stroke="#555555" points="823.16,-818.27 829.16,-816.17 823.16,-814.07 823.16,-818.27"/>
<text text-anchor="middle" x="770.5" y="-803.1" font-family="Arial" font-size="8.00">1:N</text>
</g>
<!-- specialties&#45;&gt;appointments -->
<g id="edge17" class="edge">
<title>specialties&#45;&gt;appointments</title>
<path fill="none" stroke="#555555" d="M717.63,-859.75C799.46,-859.75 913,-859.75 913,-859.75 913,-859.75 913,-866.8 913,-866.8"/>
<polygon fill="#555555" stroke="#555555" points="910.9,-866.8 913,-872.8 915.1,-866.8 910.9,-866.8"/>
<text text-anchor="middle" x="770.5" y="-868.1" font-family="Arial" font-size="8.00">1:N</text>
</g>
<!-- professionals&#45;&gt;professional_specialties -->
<g id="edge10" class="edge">
<title>professionals&#45;&gt;professional_specialties</title>
<path fill="none" stroke="#555555" d="M695.72,-680C731.91,-680 771,-680 771,-680 771,-680 771,-784.83 771,-784.83 771,-784.83 823.17,-784.83 823.17,-784.83"/>
<polygon fill="#555555" stroke="#555555" points="823.17,-786.93 829.17,-784.83 823.17,-782.73 823.17,-786.93"/>
<text text-anchor="middle" x="770.5" y="-686.1" font-family="Arial" font-size="8.00">1:N</text>
</g>
<!-- professionals&#45;&gt;professional_locations -->
<g id="edge12" class="edge">
<title>professionals&#45;&gt;professional_locations</title>
<path fill="none" stroke="#555555" d="M695.71,-668.5C695.71,-668.5 827.93,-668.5 827.93,-668.5"/>
<polygon fill="#555555" stroke="#555555" points="827.93,-670.6 833.93,-668.5 827.93,-666.4 827.93,-670.6"/>
<text text-anchor="middle" x="770.5" y="-647.1" font-family="Arial" font-size="8.00">1:N</text>
</g>
<!-- professionals&#45;&gt;appointments -->
<g id="edge15" class="edge">
<title>professionals&#45;&gt;appointments</title>
<path fill="none" stroke="#555555" d="M695.58,-691.5C710.34,-691.5 722,-691.5 722,-691.5 722,-691.5 722,-912.75 722,-912.75 722,-912.75 818.49,-912.75 818.49,-912.75"/>
<polygon fill="#555555" stroke="#555555" points="818.49,-914.85 824.49,-912.75 818.49,-910.65 818.49,-914.85"/>
<text text-anchor="middle" x="770.5" y="-764.1" font-family="Arial" font-size="8.00">1:N</text>
</g>
<!-- professionals&#45;&gt;availability_blocks -->
<g id="edge20" class="edge">
<title>professionals&#45;&gt;availability_blocks</title>
<path fill="none" stroke="#555555" d="M695.71,-608.75C695.71,-608.75 837.61,-608.75 837.61,-608.75"/>
<polygon fill="#555555" stroke="#555555" points="837.61,-610.85 843.61,-608.75 837.61,-606.65 837.61,-610.85"/>
<text text-anchor="middle" x="770.5" y="-606.1" font-family="Arial" font-size="8.00">1:N</text>
</g>
<!-- appointment_statuses -->
<g id="node15" class="node">
<title>appointment_statuses</title>
<polygon fill="#f5e8f7" stroke="transparent" points="559.5,-1164.5 559.5,-1187.5 712.5,-1187.5 712.5,-1164.5 559.5,-1164.5"/>
<text text-anchor="start" x="563.5" y="-1173.3" font-family="Arial" font-weight="bold" font-size="14.00">appointment_statuses</text>
<text text-anchor="start" x="563.5" y="-1149.3" font-family="Arial" font-size="14.00">PK id</text>
<text text-anchor="start" x="563.5" y="-1126.3" font-family="Arial" font-size="14.00">code (UQ)</text>
<polygon fill="none" stroke="black" points="558,-1118 558,-1189 713,-1189 713,-1118 558,-1118"/>
</g>
<!-- appointment_statuses&#45;&gt;appointments -->
<g id="edge19" class="edge">
<title>appointment_statuses&#45;&gt;appointments</title>
<path fill="none" stroke="#555555" d="M713.1,-1141.67C786.02,-1141.67 884,-1141.67 884,-1141.67 884,-1141.67 884,-1088.4 884,-1088.4"/>
<polygon fill="#555555" stroke="#555555" points="886.1,-1088.4 884,-1082.4 881.9,-1088.4 886.1,-1088.4"/>
<text text-anchor="middle" x="770.5" y="-1074.1" font-family="Arial" font-size="8.00">1:N</text>
</g>
<!-- appointment_statuses&#45;&gt;appointment_status_history -->
<g id="edge25" class="edge">
<title>appointment_statuses&#45;&gt;appointment_status_history</title>
<path fill="none" stroke="#555555" d="M713.03,-1165.33C713.03,-1165.33 1088.96,-1165.33 1088.96,-1165.33"/>
<polygon fill="#555555" stroke="#555555" points="1088.96,-1167.43 1094.96,-1165.33 1088.96,-1163.23 1088.96,-1167.43"/>
<text text-anchor="middle" x="913" y="-1156.1" font-family="Arial" font-size="8.00">1:N</text>
</g>
<!-- professional_slots -->
<g id="node18" class="node">
<title>professional_slots</title>
<polygon fill="#f5e8f7" stroke="transparent" points="1100,-826.5 1100,-849.5 1282,-849.5 1282,-826.5 1100,-826.5"/>
<text text-anchor="start" x="1131" y="-835.3" font-family="Arial" font-weight="bold" font-size="14.00">professional_slots</text>
<text text-anchor="start" x="1104" y="-811.3" font-family="Arial" font-size="14.00">PK id</text>
<text text-anchor="start" x="1104" y="-788.3" font-family="Arial" font-size="14.00">FK availability_block_id</text>
<text text-anchor="start" x="1104" y="-765.3" font-family="Arial" font-size="14.00">FK appointment_id (nullable)</text>
<text text-anchor="start" x="1104" y="-742.3" font-family="Arial" font-size="14.00">start_at / end_at</text>
<polygon fill="none" stroke="black" points="1099,-734 1099,-851 1283,-851 1283,-734 1099,-734"/>
</g>
<!-- appointments&#45;&gt;professional_slots -->
<g id="edge23" class="edge">
<title>appointments&#45;&gt;professional_slots</title>
<path fill="none" stroke="#555555" d="M1001.66,-1012.33C1083.36,-1012.33 1192,-1012.33 1192,-1012.33 1192,-1012.33 1192,-857.12 1192,-857.12"/>
<polygon fill="#555555" stroke="#555555" points="1194.1,-857.12 1192,-851.12 1189.9,-857.12 1194.1,-857.12"/>
<text text-anchor="middle" x="1051" y="-923.1" font-family="Arial" font-size="8.00">0..1:N</text>
</g>
<!-- appointments&#45;&gt;appointment_status_history -->
<g id="edge24" class="edge">
<title>appointments&#45;&gt;appointment_status_history</title>
<path fill="none" stroke="#555555" d="M943,-1082.06C943,-1085.81 943,-1088 943,-1088 943,-1088 1088.76,-1088 1088.76,-1088"/>
<polygon fill="#555555" stroke="#555555" points="1088.76,-1090.1 1094.76,-1088 1088.76,-1085.9 1088.76,-1090.1"/>
<text text-anchor="middle" x="1051" y="-1037.1" font-family="Arial" font-size="8.00">1:N</text>
</g>
<!-- appointments&#45;&gt;reschedule_requests -->
<g id="edge27" class="edge">
<title>appointments&#45;&gt;reschedule_requests</title>
<path fill="none" stroke="#555555" d="M1001.77,-942.67C1005.68,-942.67 1008,-942.67 1008,-942.67 1008,-942.67 1008,-481.17 1008,-481.17 1008,-481.17 1082.8,-481.17 1082.8,-481.17"/>
<polygon fill="#555555" stroke="#555555" points="1082.8,-483.27 1088.8,-481.17 1082.8,-479.07 1082.8,-483.27"/>
<text text-anchor="middle" x="1051" y="-735.1" font-family="Arial" font-size="8.00">1:N</text>
</g>
<!-- availability_blocks&#45;&gt;professional_slots -->
<g id="edge22" class="edge">
<title>availability_blocks&#45;&gt;professional_slots</title>
<path fill="none" stroke="#555555" d="M982.32,-561.5C1064.95,-561.5 1192,-561.5 1192,-561.5 1192,-561.5 1192,-727.91 1192,-727.91"/>
<polygon fill="#555555" stroke="#555555" points="1189.9,-727.91 1192,-733.91 1194.1,-727.91 1189.9,-727.91"/>
<text text-anchor="middle" x="1051" y="-630.1" font-family="Arial" font-size="8.00">1:N</text>
</g>
<!-- reschedule_statuses -->
<g id="node20" class="node">
<title>reschedule_statuses</title>
<polygon fill="#f5e8f7" stroke="transparent" points="814,-441.5 814,-464.5 1012,-464.5 1012,-441.5 814,-441.5"/>
<text text-anchor="start" x="818" y="-450.3" font-family="Arial" font-weight="bold" font-size="14.00">reschedule_request_statuses</text>
<text text-anchor="start" x="818" y="-426.3" font-family="Arial" font-size="14.00">PK id</text>
<text text-anchor="start" x="818" y="-403.3" font-family="Arial" font-size="14.00">code (UQ)</text>
<polygon fill="none" stroke="black" points="813,-395 813,-466 1013,-466 1013,-395 813,-395"/>
</g>
<!-- reschedule_statuses&#45;&gt;reschedule_requests -->
<g id="edge30" class="edge">
<title>reschedule_statuses&#45;&gt;reschedule_requests</title>
<path fill="none" stroke="#555555" d="M1013.36,-430.5C1013.36,-430.5 1082.91,-430.5 1082.91,-430.5"/>
<polygon fill="#555555" stroke="#555555" points="1082.91,-432.6 1088.91,-430.5 1082.91,-428.4 1082.91,-432.6"/>
<text text-anchor="middle" x="1051" y="-433.1" font-family="Arial" font-size="8.00">1:N</text>
</g>
</g>
</svg>
